HIERARCHY
ROOT Hips
{
	OFFSET 0.00000 0.00000 0.00000
	CHANNELS 6 Xposition Yposition Zposition Zrotation Yrotation Xrotation 
	JOINT LHipJoint
	{
		OFFSET 0 0 0
		CHANNELS 3 Zrotation Yrotation Xrotation
		JOINT LeftHip
		{
			OFFSET 3.13874 -1.57224 1.49786
			CHANNELS 3 Zrotation Yrotation Xrotation
			JOINT LeftKnee
			{
				OFFSET 2.10955 -5.79594 0.00000
				CHANNELS 3 Zrotation Yrotation Xrotation
				JOINT LeftAnkle
				{
					OFFSET 2.41843 -6.64458 0.00000
					CHANNELS 3 Zrotation Yrotation Xrotation
					JOINT LeftToe
					{
						OFFSET 0.04713 -0.12948 1.66229
						CHANNELS 3 Zrotation Yrotation Xrotation
						End Site
						{
							OFFSET 0.00000 -0.00000 0.85167
						}
					}
				}
			}
		}
	}
	JOINT RHipJoint
	{
		OFFSET 0 0 0
		CHANNELS 3 Zrotation Yrotation Xrotation
		JOINT RightHip
		{
			OFFSET -3.13988 -1.57224 1.49786
			CHANNELS 3 Zrotation Yrotation Xrotation
			JOINT RightKnee
			{
				OFFSET -2.15006 -5.90725 0.00000
				CHANNELS 3 Zrotation Yrotation Xrotation
				JOINT RightAnkle
				{
					OFFSET -2.34496 -6.44273 0.00000
					CHANNELS 3 Zrotation Yrotation Xrotation
					JOINT RightToe
					{
						OFFSET -0.08699 -0.23900 1.55223
						CHANNELS 3 Zrotation Yrotation Xrotation
						End Site
						{
							OFFSET -0.00000 -0.00000 0.80281
						}
					}
				}
			}
		}
	}
	JOINT lowerback
	{
		OFFSET 0 0 0
		CHANNELS 3 Zrotation Yrotation Xrotation
		JOINT Chest
		{
			OFFSET 0.01292 1.96517 -0.16495
			CHANNELS 3 Zrotation Yrotation Xrotation
			JOINT Chest2
			{
				OFFSET 0.02122 1.88666 0.19706
				CHANNELS 3 Zrotation Yrotation Xrotation
				JOINT lowerneck
				{
					OFFSET 0 0 0
					CHANNELS 3 Zrotation Yrotation Xrotation
					JOINT Neck
					{
						OFFSET -0.01683 1.81591 0.07903
						CHANNELS 3 Zrotation Yrotation Xrotation
						JOINT Head
						{
							OFFSET 0.00815 1.74013 -0.47700
							CHANNELS 3 Zrotation Yrotation Xrotation
							End Site
							{
								OFFSET -0.00204 1.83225 -0.16933
							}
						}
					}
				}
				JOINT LeftCollar
				{
					OFFSET 0 0 0
					CHANNELS 3 Zrotation Yrotation Xrotation
					JOINT LeftShoulder
					{
						OFFSET 3.38482 1.41533 0.19802
CHANNELS 3 Zrotation Xrotation Yrotation
						JOINT LeftElbow
						{
OFFSET 0 -4.327120 0.000000
CHANNELS 3 Zrotation Xrotation Yrotation
							JOINT LeftWrist
							{
OFFSET 0 -3.285870 -0.000000
CHANNELS 3 Zrotation Xrotation Yrotation
								JOINT lhand
								{
									OFFSET 0 0 0
CHANNELS 3 Zrotation Xrotation Yrotation
									JOINT LFingers
									{
OFFSET 0 -0.433160 -0.000000
CHANNELS 3 Zrotation Xrotation Yrotation
										End Site
										{
OFFSET 0 -0.349220 -0.000000
										}
									}
								}
								JOINT LThumb
								{
OFFSET 0 0.000000 0.000000
CHANNELS 3 Zrotation Xrotation Yrotation
									End Site
									{
OFFSET 0 -0.354560 0.354560
									}
								}
							}
						}
					}
				}
				JOINT RightCollar
				{
					OFFSET 0 0 0
					CHANNELS 3 Zrotation Yrotation Xrotation
					JOINT RightShoulder
					{
						OFFSET -3.09725 1.62858 -0.14144
CHANNELS 3 Zrotation Xrotation Yrotation
						JOINT RightElbow
						{
OFFSET 0 -4.291040 0.000000
CHANNELS 3 Zrotation Xrotation Yrotation
							JOINT RightWrist
							{
OFFSET 0 -3.227200 -0.000000
CHANNELS 3 Zrotation Xrotation Yrotation
								JOINT rhand
								{
									OFFSET 0 0 0
CHANNELS 3 Zrotation Xrotation Yrotation
									JOINT RFingers
									{
OFFSET 0 -0.543620 -0.000000
CHANNELS 3 Zrotation Xrotation Yrotation
										End Site
										{
OFFSET 0 -0.438280 -0.000000
										}
									}
								}
								JOINT RThumb
								{
OFFSET 0 0.000000 0.000000
CHANNELS 3 Zrotation Xrotation Yrotation
									End Site
									{
OFFSET 0 -0.444970 0.444970
									}
								}
							}
						}
					}
				}
			}
		}
	}
}
MOTION
Frames: 11
Frame Time: 0.008333333333333333
-39.814100 16.268800 1.355400 -168.992000 74.042000 -158.705000 0.000000 0.000000 0.000000 -27.954000 -31.822700 9.738500 0.003500 -0.379800 -1.043500 1.532400 -7.284100 -22.160600 1.321700 -7.281000 -20.550700 0.000000 0.000000 0.000000 40.006500 26.039300 17.753400 -0.252400 3.232900 -8.927800 -5.481500 -13.936900 -50.001700 -2.479100 -9.799900 28.331000 6.930700 5.213000 8.425300 -2.731100 8.596400 -12.169300 -8.954500 3.040000 -17.187100 14.602900 5.838200 -15.994000 -3.251800 8.273300 40.160100 -2.089400 6.065600 18.730200 0.000000 -0.000000 0.000000 18.831900 16.533700 -44.103600 19.754500 -30.345400 5.406800 46.124600 34.408200 -35.685700 0.000000 0.000000 0.000000 -7.125000 0.000000 0.000000 24.837500 74.811900 -17.713100 0.000000 -0.000000 0.000000 -4.084400 26.409500 26.127300 -16.365300 -26.013500 -3.804800 -23.658700 -0.969200 21.840400 0.000000 0.000000 0.000000 7.125000 0.000000 -0.000000 5.397900 53.532100 -1.135200
-39.812323 16.268107 1.361242 -169.213476 74.270601 -158.827970 0.000000 0.000000 0.000000 -27.954129 -31.781340 9.448679 0.002291 -0.306265 -0.841430 1.508036 -7.630477 -21.975225 1.102565 -6.671937 -18.747184 0.000000 0.000000 0.000000 39.926364 26.271747 17.776606 -0.251681 3.228281 -8.914968 -5.501122 -13.790164 -49.999763 -2.489866 -9.819333 28.393721 7.285008 5.210943 8.778008 -3.171996 8.649192 -12.348219 -9.752730 2.940518 -17.531251 14.591206 5.858524 -16.043385 -2.539344 7.971837 40.108153 -1.811911 6.031949 18.631251 0.000000 0.000000 0.000000 19.799679 16.637775 -44.957455 19.849183 -30.460144 5.454645 41.940494 29.437667 -34.360471 0.000000 0.000000 0.000000 -7.125000 0.000000 0.000000 15.502141 72.045759 -10.048245 0.000000 0.000000 0.000000 -3.300458 26.514724 25.945825 -16.317965 -25.949829 -3.784006 -23.662576 -1.033161 21.817837 0.000000 0.000000 0.000000 7.125000 0.000000 0.000000 5.386679 53.509190 -1.129730
-39.808810 16.268307 1.362958 -169.708613 74.416561 -159.172265 0.000000 0.000000 0.000000 -28.044636 -31.784912 9.228163 0.001914 -0.284681 -0.782150 1.497140 -7.743377 -21.893789 1.039351 -6.483806 -18.194975 0.000000 0.000000 0.000000 39.739969 26.436296 17.709201 -0.250965 3.223702 -8.902227 -5.523337 -13.697997 -50.035255 -2.509634 -9.855414 28.509740 7.626789 5.138977 9.007990 -3.561465 8.591585 -12.450006 -10.441401 2.808061 -17.729368 14.639653 5.951065 -16.256386 -2.184787 7.874103 40.057987 -1.666897 6.031684 18.632591 0.000000 0.000000 0.000000 20.500206 16.604955 -45.390965 19.863459 -30.477473 5.461948 38.106555 25.212340 -32.917676 0.000000 0.000000 0.000000 -7.125000 0.000000 0.000000 8.979636 69.234552 -5.242495 0.000000 0.000000 0.000000 -2.710912 26.518804 26.047406 -16.338148 -25.977096 -3.792923 -23.658994 -1.133607 21.792372 0.000000 0.000000 0.000000 7.125000 0.000000 0.000000 5.382224 53.481739 -1.125248
-39.802262 16.266260 1.362023 -170.037167 74.502207 -159.409222 0.000000 0.000000 0.000000 -28.166648 -31.816650 9.174996 0.002221 -0.302009 -0.829877 1.499586 -7.924966 -21.912859 0.969047 -6.267077 -17.561375 0.000000 0.000000 0.000000 39.631295 26.519120 17.696700 -0.252363 3.232314 -8.926336 -5.444433 -14.072201 -49.934251 -2.429720 -9.708909 28.039219 8.064571 4.988825 9.197353 -3.861652 8.440701 -12.471307 -11.048477 2.635845 -17.824479 14.685726 6.119509 -16.445453 -2.048274 7.975355 39.924122 -1.585994 6.070969 18.614494 0.000000 0.000000 0.000000 20.959329 16.654680 -45.243134 19.920675 -30.546633 5.491004 34.321937 21.581376 -31.356152 0.000000 0.000000 0.000000 -7.125000 0.000000 0.000000 3.800184 66.367259 -1.976849 0.000000 0.000000 0.000000 -2.269172 26.415028 26.216996 -16.352622 -25.996362 -3.799163 -23.694150 -1.072978 21.659126 0.000000 0.000000 0.000000 7.125000 0.000000 0.000000 5.303992 53.347875 -1.091447
-39.793033 16.264437 1.360916 -170.176861 74.606225 -159.505280 0.000000 0.000000 0.000000 -28.234413 -31.707243 9.088210 0.002519 -0.322317 -0.885722 1.493876 -7.745659 -21.869957 0.916497 -6.099570 -17.073637 0.000000 0.000000 0.000000 39.603120 26.604070 17.748605 -0.253032 3.236716 -8.938390 -5.411203 -14.192867 -49.874347 -2.412053 -9.676246 27.934603 8.639201 4.860068 9.572621 -4.254653 8.373224 -12.624930 -11.904210 2.448188 -18.119347 14.724160 6.189337 -16.552059 -1.631758 7.854894 39.892378 -1.417694 6.076965 18.592415 0.000000 0.000000 0.000000 21.731054 16.908605 -45.429004 20.031870 -30.680657 5.547681 30.368335 17.932844 -29.560688 0.000000 0.000000 0.000000 -7.125000 0.000000 0.000000 -0.671298 63.314957 0.234357 0.000000 0.000000 0.000000 -1.514310 26.512927 26.063273 -16.341346 -25.981319 -3.794279 -23.726785 -0.884993 21.548689 0.000000 0.000000 0.000000 7.125000 0.000000 0.000000 5.235947 53.237594 -1.063227
-39.785074 16.264718 1.360007 -170.181930 74.745561 -159.459736 0.000000 0.000000 0.000000 -28.226185 -31.563555 8.929398 0.002735 -0.339519 -0.932772 1.491022 -7.237533 -21.853015 0.918751 -6.106307 -17.093271 0.000000 0.000000 0.000000 39.595653 26.759571 17.755475 -0.250629 3.221245 -8.895364 -5.346460 -14.543326 -49.818771 -2.358612 -9.575294 27.612748 9.533431 4.769755 10.295356 -5.017406 8.461854 -13.204126 -13.423769 2.226742 -18.577182 15.083662 6.094693 -16.586862 -0.988325 7.314726 39.956572 -1.282707 6.017340 18.576000 0.000000 0.000000 0.000000 23.379929 17.283261 -46.452703 20.192762 -30.873867 5.629932 24.426802 12.698380 -26.704232 0.000000 0.000000 0.000000 -7.125000 0.000000 0.000000 -6.443143 58.784440 2.176738 0.000000 0.000000 0.000000 0.061953 26.873532 25.369190 -16.337359 -25.975947 -3.792502 -23.685595 -0.602792 21.552481 0.000000 0.000000 0.000000 7.125000 0.000000 0.000000 5.279279 53.233963 -1.071659
-39.780217 16.264044 1.359356 -169.787432 74.909219 -159.013664 0.000000 0.000000 0.000000 -28.079116 -31.436128 8.723629 0.002958 -0.348616 -0.957751 1.485704 -7.232595 -21.813842 0.830066 -5.810060 -16.235013 0.000000 0.000000 0.000000 39.673932 27.010179 17.692486 -0.243832 3.177475 -8.773187 -5.171695 -15.404899 -49.635485 -2.188333 -9.247505 26.572808 9.459577 4.804663 9.960631 -4.862583 8.448028 -12.992342 -13.119578 2.296067 -18.204768 15.112802 6.100419 -16.671201 -1.278073 7.350260 39.764216 -1.424621 5.968584 18.503905 0.000000 0.000000 0.000000 23.038513 17.023348 -46.212704 20.124848 -30.792446 5.595105 24.688991 12.816907 -26.759915 0.000000 0.000000 0.000000 -7.125000 0.000000 0.000000 -6.176236 58.903463 2.103785 0.000000 0.000000 0.000000 -0.265952 26.524627 25.675345 -16.385935 -26.041050 -3.813784 -23.543132 -0.771905 21.640015 0.000000 0.000000 0.000000 7.125000 0.000000 0.000000 5.452848 53.299149 -1.115691
-39.772788 16.264322 1.360158 -169.291169 75.048991 -158.495694 0.000000 0.000000 0.000000 -27.918096 -31.334301 8.642393 0.002815 -0.341231 -0.937494 1.483878 -7.604234 -21.795354 0.711761 -5.391460 -15.028625 0.000000 0.000000 0.000000 39.810843 27.214483 17.692618 -0.238358 3.141792 -8.673789 -5.084575 -15.725589 -49.491714 -2.122739 -9.117178 26.162602 9.621717 4.834007 9.844720 -4.823072 8.496439 -12.774524 -13.229849 2.290586 -18.238826 15.160611 6.081941 -16.670862 -1.398564 7.329874 39.683665 -1.497921 5.941857 18.463039 0.000000 0.000000 0.000000 22.989053 16.935638 -46.055675 20.041977 -30.692854 5.552783 24.811636 13.060278 -26.969207 0.000000 0.000000 0.000000 -7.125000 0.000000 0.000000 -6.134858 59.149719 2.125874 0.000000 0.000000 0.000000 -0.256511 26.481598 25.828068 -16.446562 -26.122355 -3.840447 -23.455662 -0.888883 21.633978 0.000000 0.000000 0.000000 7.125000 0.000000 0.000000 5.540890 53.276216 -1.130842
-39.760742 16.267986 1.363024 -169.159048 75.110369 -158.406910 0.000000 0.000000 0.000000 -27.888653 -31.195151 8.742019 0.003550 -0.386090 -1.060889 1.480457 -7.631620 -21.770011 0.679679 -5.271103 -14.683488 0.000000 0.000000 0.000000 39.927908 27.216270 17.864339 -0.241280 3.161302 -8.728021 -5.126029 -15.505303 -49.522853 -2.162954 -9.197402 26.414778 9.617255 4.858926 9.922190 -4.930008 8.543123 -13.036656 -13.280173 2.326169 -18.090661 15.230568 6.031707 -16.607404 -1.377897 7.229839 39.655311 -1.524193 5.917156 18.421927 0.000000 0.000000 0.000000 23.164002 16.918624 -46.133956 19.965190 -30.600338 5.513632 24.841746 13.120073 -26.993162 0.000000 0.000000 0.000000 -7.125000 0.000000 0.000000 -6.112258 59.181681 2.122823 0.000000 0.000000 0.000000 -0.037141 26.579245 25.810835 -16.487117 -26.176659 -3.858328 -23.512129 -1.042253 21.324899 0.000000 0.000000 0.000000 7.125000 0.000000 0.000000 5.386352 52.961180 -1.057795
-39.752069 16.269974 1.365279 -169.174058 75.172354 -158.431489 0.000000 0.000000 0.000000 -27.904491 -31.109338 8.800581 0.004326 -0.426016 -1.170619 1.485668 -7.424519 -21.810092 0.715187 -5.404364 -15.065621 0.000000 0.000000 0.000000 39.971328 27.234017 17.975829 -0.243064 3.172688 -8.759795 -5.209743 -15.177353 -49.652044 -2.210154 -9.290740 26.709088 9.728127 4.907885 10.035764 -5.077846 8.637680 -13.109252 -13.566769 2.325747 -18.191388 15.284215 5.974169 -16.581447 -1.274593 7.087774 39.648295 -1.515324 5.886798 18.393480 0.000000 0.000000 0.000000 23.555220 16.986007 -46.605883 19.989004 -30.629086 5.525765 24.907613 12.841990 -26.751342 0.000000 0.000000 0.000000 -7.125000 0.000000 0.000000 -5.928003 58.945525 2.024949 0.000000 0.000000 0.000000 0.324943 26.727755 25.605097 -16.520031 -26.220716 -3.872905 -23.593811 -1.157081 21.053213 0.000000 0.000000 0.000000 7.125000 0.000000 0.000000 5.219966 52.689876 -0.990009
-39.746564 16.269360 1.364592 -169.150104 75.291793 -158.355222 0.000000 0.000000 0.000000 -27.971523 -31.228879 8.863617 0.004987 -0.455561 -1.251755 1.517988 -7.388571 -22.051428 0.725068 -5.440992 -15.170630 0.000000 0.000000 0.000000 39.958453 27.374626 17.968807 -0.240043 3.153270 -8.705785 -5.222858 -15.131597 -49.676332 -2.192774 -9.255581 26.598904 9.828118 4.956123 10.139071 -5.194168 8.722414 -13.130934 -13.797090 2.332984 -18.228852 15.230690 5.958432 -16.820007 -1.179715 6.969745 39.635957 -1.480664 5.835057 18.427479 0.000000 0.000000 0.000000 23.826253 16.910719 -46.946633 20.003065 -30.646006 5.532892 24.866329 12.590000 -26.618464 0.000000 0.000000 0.000000 -7.125000 0.000000 0.000000 -5.914673 58.797396 1.999639 0.000000 0.000000 0.000000 0.578064 26.654557 25.397166 -16.514426 -26.213229 -3.870425 -23.561407 -1.182862 21.092919 0.000000 0.000000 0.000000 7.125000 0.000000 0.000000 5.264920 52.725756 -1.003204
